<?xml version="1.0" standalone="no"?>
<!DOCTYPE svg PUBLIC "-//W3C//DTD SVG 20010904//EN"
 "http://www.w3.org/TR/2001/REC-SVG-20010904/DTD/svg10.dtd">
<svg version="1.0" xmlns="http://www.w3.org/2000/svg"
 width="153.000000pt" height="15.000000pt" viewBox="0 0 153.000000 15.000000"
 preserveAspectRatio="xMidYMid meet">

<g transform="translate(0.000000,15.000000) scale(0.100000,-0.100000)"
fill="#000000" stroke="none">
<path d="M41 88 c-10 -27 -1 -41 21 -33 20 8 21 55 1 55 -7 0 -18 -10 -22 -22z"/>
<path d="M108 103 c-27 -7 -22 -42 6 -49 25 -6 66 10 66 26 0 10 -34 31 -47
29 -4 -1 -16 -3 -25 -6z m39 -19 c-3 -3 -12 -4 -19 -1 -8 3 -5 6 6 6 11 1 17
-2 13 -5z"/>
<path d="M190 86 c0 -16 7 -27 20 -31 27 -9 40 1 40 31 0 30 -20 32 -21 2 l0
-23 -9 23 c-12 29 -30 28 -30 -2z"/>
<path d="M277 104 c-4 -4 -7 -18 -7 -31 0 -28 23 -27 28 1 4 20 -11 40 -21 30z"/>
<path d="M314 95 c-11 -28 4 -45 36 -41 45 5 60 23 36 42 -26 18 -65 18 -72
-1z m56 -15 c0 -5 -7 -10 -15 -10 -8 0 -15 5 -15 10 0 6 7 10 15 10 8 0 15 -4
15 -10z"/>
<path d="M458 99 c-10 -5 -18 -14 -18 -19 0 -15 39 -32 60 -25 30 10 24 28 -7
22 -24 -4 -26 -4 -10 8 32 23 11 35 -25 14z"/>
<path d="M537 104 c-4 -4 -7 -17 -7 -29 0 -17 6 -22 31 -22 26 0 30 3 27 26
-3 26 -35 41 -51 25z"/>
<path d="M612 96 c-20 -28 -7 -41 41 -42 46 -1 48 0 45 25 -3 23 -8 26 -40 27
-21 1 -42 -4 -46 -10z"/>
<path d="M720 95 c-10 -12 -10 -18 0 -30 18 -21 40 -19 40 5 0 11 0 23 1 28 1
14 -28 13 -41 -3z"/>
<path d="M810 100 c0 -5 5 -10 10 -10 6 0 10 -9 10 -20 0 -28 19 -25 30 6 14
35 14 34 -20 34 -16 0 -30 -4 -30 -10z"/>
<path d="M887 103 c-11 -10 -8 -41 4 -49 6 -3 15 -1 19 6 5 9 9 9 14 1 12 -19
26 -12 26 13 0 29 -43 49 -63 29z"/>
<path d="M973 103 c-14 -5 -18 -35 -6 -46 3 -4 12 -2 19 4 8 7 14 7 19 -1 9
-15 25 -2 25 20 0 24 -28 35 -57 23z"/>
<path d="M1054 95 c-19 -15 -19 -15 0 -30 25 -19 37 -19 62 0 19 15 19 15 0
30 -11 8 -25 15 -31 15 -6 0 -20 -7 -31 -15z m46 -15 c0 -5 -7 -10 -15 -10 -8
0 -15 5 -15 10 0 6 7 10 15 10 8 0 15 -4 15 -10z"/>
<path d="M1147 103 c-11 -10 -8 -41 4 -49 6 -3 15 -1 19 6 5 9 9 9 14 1 13
-20 23 -12 23 19 0 32 -6 37 -25 18 -9 -9 -12 -9 -12 0 0 13 -13 16 -23 5z"/>
<path d="M1244 102 c-15 -10 -25 -40 -14 -47 16 -10 38 7 38 31 0 25 -6 29
-24 16z"/>
<path d="M1286 103 c-13 -13 -5 -42 13 -48 26 -8 51 4 51 25 0 29 -19 34 -29
8 -7 -16 -10 -18 -10 -6 -1 19 -15 31 -25 21z"/>
<path d="M1364 96 c-7 -20 2 -46 16 -46 13 0 13 47 0 55 -6 3 -13 -1 -16 -9z"/>
<path d="M1405 100 c-3 -5 -1 -10 4 -10 6 0 11 -9 11 -20 0 -26 20 -26 27 0 3
11 10 20 15 20 5 0 6 5 3 10 -3 6 -17 10 -30 10 -13 0 -27 -4 -30 -10z"/>
</g>
</svg>
